<svg version="1.1" xmlns="http://www.w3.org/2000/svg" xmlns:xlink="http://www.w3.org/1999/xlink" viewBox="190 100 175 175" class="main" style="transform: perspective(0px) rotate3d(0, 0, 0, 0deg) rotateY(0deg) rotateX(0deg) rotate(0deg) skew(0deg, 0deg) translate(0px, 0px) translateZ(100px); width: 40%; height: auto; top: 10%; left: 30%;">
        <defs>
            <filter id="filter-original" x="-50%" y="-50%" width="200%" height="200%">
                <feFlood flood-color="#ffffff" result="flood-white"></feFlood>
                <feFlood flood-color="#dd0655" result="flood-accent"></feFlood>
                <feComposite operator="out" in="flood-accent" in2="SourceAlpha" result="comp"></feComposite>
                <feGaussianBlur in="comp" result="comp" stdDeviation="0"></feGaussianBlur>
                <feComposite operator="in" in="comp" in2="SourceAlpha" result="comp"></feComposite>
                <feComposite operator="in" in="flood-white" in2="SourceAlpha" result="comp2"></feComposite>
                <feGaussianBlur in="comp2" result="comp2" stdDeviation="0.5"></feGaussianBlur>
                <feBlend in="comp" in2="comp2" result="output" mode="screen"></feBlend>
            </filter>
            <filter id="filter-neon" x="-75%" y="-75%" width="250%" height="250%">
                <feTurbulence baseFrequency="0" type="fractalNoise" numOctaves="1" seed="1" result="noise"></feTurbulence>
                <feColorMatrix in="noise" result="noise" type="hueRotate" values="90"></feColorMatrix>
                <feDisplacementMap in="SourceGraphic" xChannelSelector="R" in2="noise" scale="20" result="lines"></feDisplacementMap>
                <feGaussianBlur in="lines" result="output" stdDeviation="25"></feGaussianBlur>
                <feBlend in="lines" in2="output" result="output" mode="screen"></feBlend>
            </filter>
            <filter id="filter-glow-1" x="-50%" y="-50%" width="200%" height="200%">
                <feGaussianBlur in="SourceGraphic" stdDeviation="8"></feGaussianBlur>
            </filter>
            <filter id="filter-glow-2" x="-100%" y="-100%" width="300%" height="300%">
                <feGaussianBlur in="SourceGraphic" stdDeviation="35"></feGaussianBlur>
            </filter>
        </defs>
        <path d="M263.59794,225.09162l27.70916,13.59908v14.79008h-27.70916z" style="fill: none; filter: url(&quot;#filter-neon&quot;); opacity: 0.45; mix-blend-mode: screen; stroke: rgb(255, 255, 255); stroke-width: 2;" class="neon-helper-path"></path>
        <path d="M263.59794,225.09162l27.70916,13.59908v14.79008h-27.70916z" style="fill: none; filter: url(&quot;#filter-neon&quot;); mix-blend-mode: screen; stroke: rgb(221, 6, 85); stroke-width: 5;" class="neon-helper-path"></path>
        <path d="M263.59794,225.09162l27.70916,13.59908v14.79008h-27.70916z" style="fill: rgb(221, 6, 85); filter: url(&quot;#filter-glow-1&quot;); opacity: 1; mix-blend-mode: screen; stroke: rgb(221, 6, 85); stroke-width: 5;" class="neon-helper-path"></path>
        <path d="M263.59794,225.09162l27.70916,13.59908v14.79008h-27.70916z" style="fill: rgb(221, 6, 85); filter: url(&quot;#filter-glow-2&quot;); opacity: 0.75; mix-blend-mode: screen; stroke: rgb(221, 6, 85); stroke-width: 5;" class="neon-helper-path"></path>
        <path d="M229.24774,230.46165c6.24004,6.24004 13.40608,11.07106 21.49812,14.49408c2.97502,1.25801 5.99903,2.29201 9.07305,3.10402v-5.39803c-2.38101,-0.686 -4.73003,-1.51901 -7.04604,-2.49801c-7.46871,-3.15935 -14.08408,-7.61971 -19.84611,-13.38108c-5.76137,-5.76137 -10.22172,-12.37674 -13.38108,-19.84611c-0.859,-2.03301 -1.60601,-4.09102 -2.24001,-6.17403l-2.23101,-1.05201l-2.27901,-1.07401l-1.64701,-0.776c0.87,3.77502 2.07201,7.47604 3.60602,11.10306c3.42269,8.09205 8.25371,15.25809 14.49308,21.49812z" style="fill: none; filter: url(&quot;#filter-neon&quot;); opacity: 0.45; mix-blend-mode: screen; stroke: rgb(255, 255, 255); stroke-width: 2;" class="neon-helper-path"></path>
        <path d="M229.24774,230.46165c6.24004,6.24004 13.40608,11.07106 21.49812,14.49408c2.97502,1.25801 5.99903,2.29201 9.07305,3.10402v-5.39803c-2.38101,-0.686 -4.73003,-1.51901 -7.04604,-2.49801c-7.46871,-3.15935 -14.08408,-7.61971 -19.84611,-13.38108c-5.76137,-5.76137 -10.22172,-12.37674 -13.38108,-19.84611c-0.859,-2.03301 -1.60601,-4.09102 -2.24001,-6.17403l-2.23101,-1.05201l-2.27901,-1.07401l-1.64701,-0.776c0.87,3.77502 2.07201,7.47604 3.60602,11.10306c3.42269,8.09205 8.25371,15.25809 14.49308,21.49812z" style="fill: none; filter: url(&quot;#filter-neon&quot;); mix-blend-mode: screen; stroke: rgb(221, 6, 85); stroke-width: 5;" class="neon-helper-path"></path>
        <path d="M229.24774,230.46165c6.24004,6.24004 13.40608,11.07106 21.49812,14.49408c2.97502,1.25801 5.99903,2.29201 9.07305,3.10402v-5.39803c-2.38101,-0.686 -4.73003,-1.51901 -7.04604,-2.49801c-7.46871,-3.15935 -14.08408,-7.61971 -19.84611,-13.38108c-5.76137,-5.76137 -10.22172,-12.37674 -13.38108,-19.84611c-0.859,-2.03301 -1.60601,-4.09102 -2.24001,-6.17403l-2.23101,-1.05201l-2.27901,-1.07401l-1.64701,-0.776c0.87,3.77502 2.07201,7.47604 3.60602,11.10306c3.42269,8.09205 8.25371,15.25809 14.49308,21.49812z" style="fill: rgb(221, 6, 85); filter: url(&quot;#filter-glow-1&quot;); opacity: 1; mix-blend-mode: screen; stroke: rgb(221, 6, 85); stroke-width: 5;" class="neon-helper-path"></path>
        <path d="M229.24774,230.46165c6.24004,6.24004 13.40608,11.07106 21.49812,14.49408c2.97502,1.25801 5.99903,2.29201 9.07305,3.10402v-5.39803c-2.38101,-0.686 -4.73003,-1.51901 -7.04604,-2.49801c-7.46871,-3.15935 -14.08408,-7.61971 -19.84611,-13.38108c-5.76137,-5.76137 -10.22172,-12.37674 -13.38108,-19.84611c-0.859,-2.03301 -1.60601,-4.09102 -2.24001,-6.17403l-2.23101,-1.05201l-2.27901,-1.07401l-1.64701,-0.776c0.87,3.77502 2.07201,7.47604 3.60602,11.10306c3.42269,8.09205 8.25371,15.25809 14.49308,21.49812z" style="fill: rgb(221, 6, 85); filter: url(&quot;#filter-glow-2&quot;); opacity: 0.75; mix-blend-mode: screen; stroke: rgb(221, 6, 85); stroke-width: 5;" class="neon-helper-path"></path>
        <path d="M313.91622,227.81164l-50.31829,-23.62913v9.68905l24.13914,11.05006l-1.02001,2.04001l-80.40646,-38.24922l-1.02001,2.21001l32.46818,15.30009l-1.36001,2.89002l54.90831,27.02915v-14.79008z" style="fill: none; filter: url(&quot;#filter-neon&quot;); opacity: 0.45; mix-blend-mode: screen; stroke: rgb(255, 255, 255); stroke-width: 2;" class="neon-helper-path"></path>
        <path d="M313.91622,227.81164l-50.31829,-23.62913v9.68905l24.13914,11.05006l-1.02001,2.04001l-80.40646,-38.24922l-1.02001,2.21001l32.46818,15.30009l-1.36001,2.89002l54.90831,27.02915v-14.79008z" style="fill: none; filter: url(&quot;#filter-neon&quot;); mix-blend-mode: screen; stroke: rgb(221, 6, 85); stroke-width: 5;" class="neon-helper-path"></path>
        <path d="M313.91622,227.81164l-50.31829,-23.62913v9.68905l24.13914,11.05006l-1.02001,2.04001l-80.40646,-38.24922l-1.02001,2.21001l32.46818,15.30009l-1.36001,2.89002l54.90831,27.02915v-14.79008z" style="fill: rgb(221, 6, 85); filter: url(&quot;#filter-glow-1&quot;); opacity: 1; mix-blend-mode: screen; stroke: rgb(221, 6, 85); stroke-width: 5;" class="neon-helper-path"></path>
        <path d="M313.91622,227.81164l-50.31829,-23.62913v9.68905l24.13914,11.05006l-1.02001,2.04001l-80.40646,-38.24922l-1.02001,2.21001l32.46818,15.30009l-1.36001,2.89002l54.90831,27.02915v-14.79008z" style="fill: rgb(221, 6, 85); filter: url(&quot;#filter-glow-2&quot;); opacity: 0.75; mix-blend-mode: screen; stroke: rgb(221, 6, 85); stroke-width: 5;" class="neon-helper-path"></path>
        <path d="M344.70939,182.63538c0,-9.17205 -1.77201,-17.9481 -5.31603,-26.32715c-1.26101,-2.98302 -2.71402,-5.84003 -4.35902,-8.57105v11.05706l-0.004,0.185l-0.014,0.185l-0.016,0.134c3.00402,7.44004 4.50703,15.21909 4.50703,23.33713c0,8.46905 -1.63501,16.57009 -4.90503,24.30114c-3.16002,7.46904 -7.62004,14.08408 -13.38208,19.84611c-5.76137,5.76137 -12.3764,10.22172 -19.84511,13.38108c-2.07001,0.875 -4.16702,1.63301 -6.28904,2.27501v5.41603c2.81402,-0.778 5.58603,-1.74501 8.31505,-2.89902c8.09205,-3.42302 15.25809,-8.25405 21.49912,-14.49408c6.23904,-6.24004 11.07006,-13.40608 14.49308,-21.49812c3.54402,-8.37905 5.31603,-17.1551 5.31603,-26.32815z" style="fill: none; filter: url(&quot;#filter-neon&quot;); opacity: 0.45; mix-blend-mode: screen; stroke: rgb(255, 255, 255); stroke-width: 2;" class="neon-helper-path"></path>
        <path d="M344.70939,182.63538c0,-9.17205 -1.77201,-17.9481 -5.31603,-26.32715c-1.26101,-2.98302 -2.71402,-5.84003 -4.35902,-8.57105v11.05706l-0.004,0.185l-0.014,0.185l-0.016,0.134c3.00402,7.44004 4.50703,15.21909 4.50703,23.33713c0,8.46905 -1.63501,16.57009 -4.90503,24.30114c-3.16002,7.46904 -7.62004,14.08408 -13.38208,19.84611c-5.76137,5.76137 -12.3764,10.22172 -19.84511,13.38108c-2.07001,0.875 -4.16702,1.63301 -6.28904,2.27501v5.41603c2.81402,-0.778 5.58603,-1.74501 8.31505,-2.89902c8.09205,-3.42302 15.25809,-8.25405 21.49912,-14.49408c6.23904,-6.24004 11.07006,-13.40608 14.49308,-21.49812c3.54402,-8.37905 5.31603,-17.1551 5.31603,-26.32815z" style="fill: none; filter: url(&quot;#filter-neon&quot;); mix-blend-mode: screen; stroke: rgb(221, 6, 85); stroke-width: 5;" class="neon-helper-path"></path>
        <path d="M344.70939,182.63538c0,-9.17205 -1.77201,-17.9481 -5.31603,-26.32715c-1.26101,-2.98302 -2.71402,-5.84003 -4.35902,-8.57105v11.05706l-0.004,0.185l-0.014,0.185l-0.016,0.134c3.00402,7.44004 4.50703,15.21909 4.50703,23.33713c0,8.46905 -1.63501,16.57009 -4.90503,24.30114c-3.16002,7.46904 -7.62004,14.08408 -13.38208,19.84611c-5.76137,5.76137 -12.3764,10.22172 -19.84511,13.38108c-2.07001,0.875 -4.16702,1.63301 -6.28904,2.27501v5.41603c2.81402,-0.778 5.58603,-1.74501 8.31505,-2.89902c8.09205,-3.42302 15.25809,-8.25405 21.49912,-14.49408c6.23904,-6.24004 11.07006,-13.40608 14.49308,-21.49812c3.54402,-8.37905 5.31603,-17.1551 5.31603,-26.32815z" style="fill: rgb(221, 6, 85); filter: url(&quot;#filter-glow-1&quot;); opacity: 1; mix-blend-mode: screen; stroke: rgb(221, 6, 85); stroke-width: 5;" class="neon-helper-path"></path>
        <path d="M344.70939,182.63538c0,-9.17205 -1.77201,-17.9481 -5.31603,-26.32715c-1.26101,-2.98302 -2.71402,-5.84003 -4.35902,-8.57105v11.05706l-0.004,0.185l-0.014,0.185l-0.016,0.134c3.00402,7.44004 4.50703,15.21909 4.50703,23.33713c0,8.46905 -1.63501,16.57009 -4.90503,24.30114c-3.16002,7.46904 -7.62004,14.08408 -13.38208,19.84611c-5.76137,5.76137 -12.3764,10.22172 -19.84511,13.38108c-2.07001,0.875 -4.16702,1.63301 -6.28904,2.27501v5.41603c2.81402,-0.778 5.58603,-1.74501 8.31505,-2.89902c8.09205,-3.42302 15.25809,-8.25405 21.49912,-14.49408c6.23904,-6.24004 11.07006,-13.40608 14.49308,-21.49812c3.54402,-8.37905 5.31603,-17.1551 5.31603,-26.32815z" style="fill: rgb(221, 6, 85); filter: url(&quot;#filter-glow-2&quot;); opacity: 0.75; mix-blend-mode: screen; stroke: rgb(221, 6, 85); stroke-width: 5;" class="neon-helper-path"></path>
        <path d="M214.75466,156.30823c-3.54402,8.37905 -5.31703,17.1551 -5.31703,26.32715c0,1.14701 0.028,2.28601 0.083,3.42002l5.39803,2.56801c-0.185,-1.97501 -0.278,-3.97102 -0.278,-5.98803c0,-8.46905 1.63501,-16.56909 4.90503,-24.30014c0.18467,-0.43534 0.37334,-0.86767 0.566,-1.29701l-0.078,-1.47001l-0.062,-1.27501l-0.039,-1.33601l-0.018,-1.31801l0.001,-1.31301l0.02,-1.31201l0.041,-1.32001l0.057,-1.44201c-2.02701,3.17602 -3.78702,6.52804 -5.27903,10.05606z" style="fill: none; filter: url(&quot;#filter-neon&quot;); opacity: 0.45; mix-blend-mode: screen; stroke: rgb(255, 255, 255); stroke-width: 2;" class="neon-helper-path"></path>
        <path d="M214.75466,156.30823c-3.54402,8.37905 -5.31703,17.1551 -5.31703,26.32715c0,1.14701 0.028,2.28601 0.083,3.42002l5.39803,2.56801c-0.185,-1.97501 -0.278,-3.97102 -0.278,-5.98803c0,-8.46905 1.63501,-16.56909 4.90503,-24.30014c0.18467,-0.43534 0.37334,-0.86767 0.566,-1.29701l-0.078,-1.47001l-0.062,-1.27501l-0.039,-1.33601l-0.018,-1.31801l0.001,-1.31301l0.02,-1.31201l0.041,-1.32001l0.057,-1.44201c-2.02701,3.17602 -3.78702,6.52804 -5.27903,10.05606z" style="fill: none; filter: url(&quot;#filter-neon&quot;); mix-blend-mode: screen; stroke: rgb(221, 6, 85); stroke-width: 5;" class="neon-helper-path"></path>
        <path d="M214.75466,156.30823c-3.54402,8.37905 -5.31703,17.1551 -5.31703,26.32715c0,1.14701 0.028,2.28601 0.083,3.42002l5.39803,2.56801c-0.185,-1.97501 -0.278,-3.97102 -0.278,-5.98803c0,-8.46905 1.63501,-16.56909 4.90503,-24.30014c0.18467,-0.43534 0.37334,-0.86767 0.566,-1.29701l-0.078,-1.47001l-0.062,-1.27501l-0.039,-1.33601l-0.018,-1.31801l0.001,-1.31301l0.02,-1.31201l0.041,-1.32001l0.057,-1.44201c-2.02701,3.17602 -3.78702,6.52804 -5.27903,10.05606z" style="fill: rgb(221, 6, 85); filter: url(&quot;#filter-glow-1&quot;); opacity: 1; mix-blend-mode: screen; stroke: rgb(221, 6, 85); stroke-width: 5;" class="neon-helper-path"></path>
        <path d="M214.75466,156.30823c-3.54402,8.37905 -5.31703,17.1551 -5.31703,26.32715c0,1.14701 0.028,2.28601 0.083,3.42002l5.39803,2.56801c-0.185,-1.97501 -0.278,-3.97102 -0.278,-5.98803c0,-8.46905 1.63501,-16.56909 4.90503,-24.30014c0.18467,-0.43534 0.37334,-0.86767 0.566,-1.29701l-0.078,-1.47001l-0.062,-1.27501l-0.039,-1.33601l-0.018,-1.31801l0.001,-1.31301l0.02,-1.31201l0.041,-1.32001l0.057,-1.44201c-2.02701,3.17602 -3.78702,6.52804 -5.27903,10.05606z" style="fill: rgb(221, 6, 85); filter: url(&quot;#filter-glow-2&quot;); opacity: 0.75; mix-blend-mode: screen; stroke: rgb(221, 6, 85); stroke-width: 5;" class="neon-helper-path"></path>
        <path d="M223.81971,146.55418c-0.17,2.55001 -0.17,6.46004 0,9.01005l0.17,3.23002h39.60822v21.07912l-28.55916,-2.89002l56.26832,26.34915v-22.09913l-19.71911,-8.50005l1.02001,-2.04001l35.8682,15.98009l1.02001,-2.04001l-18.1891,-8.16005v-17.6791h39.94823v-23.96914h-107.43561z" style="fill: none; filter: url(&quot;#filter-neon&quot;); opacity: 0.45; mix-blend-mode: screen; stroke: rgb(255, 255, 255); stroke-width: 2;" class="neon-helper-path"></path>
        <path d="M223.81971,146.55418c-0.17,2.55001 -0.17,6.46004 0,9.01005l0.17,3.23002h39.60822v21.07912l-28.55916,-2.89002l56.26832,26.34915v-22.09913l-19.71911,-8.50005l1.02001,-2.04001l35.8682,15.98009l1.02001,-2.04001l-18.1891,-8.16005v-17.6791h39.94823v-23.96914h-107.43561z" style="fill: none; filter: url(&quot;#filter-neon&quot;); mix-blend-mode: screen; stroke: rgb(221, 6, 85); stroke-width: 5;" class="neon-helper-path"></path>
        <path d="M223.81971,146.55418c-0.17,2.55001 -0.17,6.46004 0,9.01005l0.17,3.23002h39.60822v21.07912l-28.55916,-2.89002l56.26832,26.34915v-22.09913l-19.71911,-8.50005l1.02001,-2.04001l35.8682,15.98009l1.02001,-2.04001l-18.1891,-8.16005v-17.6791h39.94823v-23.96914h-107.43561z" style="fill: rgb(221, 6, 85); filter: url(&quot;#filter-glow-1&quot;); opacity: 1; mix-blend-mode: screen; stroke: rgb(221, 6, 85); stroke-width: 5;" class="neon-helper-path"></path>
        <path d="M223.81971,146.55418c-0.17,2.55001 -0.17,6.46004 0,9.01005l0.17,3.23002h39.60822v21.07912l-28.55916,-2.89002l56.26832,26.34915v-22.09913l-19.71911,-8.50005l1.02001,-2.04001l35.8682,15.98009l1.02001,-2.04001l-18.1891,-8.16005v-17.6791h39.94823v-23.96914h-107.43561z" style="fill: rgb(221, 6, 85); filter: url(&quot;#filter-glow-2&quot;); opacity: 0.75; mix-blend-mode: screen; stroke: rgb(221, 6, 85); stroke-width: 5;" class="neon-helper-path"></path>
        <path d="M277.07401,115c-9.17305,0 -17.9491,1.77201 -26.32815,5.31603c-6.38304,2.70002 -12.19007,6.27704 -17.4211,10.73006h8.55605c3.40302,-2.32701 7.03404,-4.30602 10.89206,-5.93803c7.73204,-3.27002 15.83209,-4.90503 24.30114,-4.90503c8.46938,0 16.56976,1.63501 24.30114,4.90503c3.85802,1.63201 7.48904,3.61102 10.89106,5.93803h8.55705c-5.23103,-4.45303 -11.03806,-8.03005 -17.4221,-10.73006c-8.37905,-3.54402 -17.1551,-5.31603 -26.32715,-5.31603z" style="fill: none; filter: url(&quot;#filter-neon&quot;); opacity: 0.45; mix-blend-mode: screen; stroke: rgb(255, 255, 255); stroke-width: 2;" class="neon-helper-path"></path>
        <path d="M277.07401,115c-9.17305,0 -17.9491,1.77201 -26.32815,5.31603c-6.38304,2.70002 -12.19007,6.27704 -17.4211,10.73006h8.55605c3.40302,-2.32701 7.03404,-4.30602 10.89206,-5.93803c7.73204,-3.27002 15.83209,-4.90503 24.30114,-4.90503c8.46938,0 16.56976,1.63501 24.30114,4.90503c3.85802,1.63201 7.48904,3.61102 10.89106,5.93803h8.55705c-5.23103,-4.45303 -11.03806,-8.03005 -17.4221,-10.73006c-8.37905,-3.54402 -17.1551,-5.31603 -26.32715,-5.31603z" style="fill: none; filter: url(&quot;#filter-neon&quot;); mix-blend-mode: screen; stroke: rgb(221, 6, 85); stroke-width: 5;" class="neon-helper-path"></path>
        <path d="M277.07401,115c-9.17305,0 -17.9491,1.77201 -26.32815,5.31603c-6.38304,2.70002 -12.19007,6.27704 -17.4211,10.73006h8.55605c3.40302,-2.32701 7.03404,-4.30602 10.89206,-5.93803c7.73204,-3.27002 15.83209,-4.90503 24.30114,-4.90503c8.46938,0 16.56976,1.63501 24.30114,4.90503c3.85802,1.63201 7.48904,3.61102 10.89106,5.93803h8.55705c-5.23103,-4.45303 -11.03806,-8.03005 -17.4221,-10.73006c-8.37905,-3.54402 -17.1551,-5.31603 -26.32715,-5.31603z" style="fill: rgb(221, 6, 85); filter: url(&quot;#filter-glow-1&quot;); opacity: 1; mix-blend-mode: screen; stroke: rgb(221, 6, 85); stroke-width: 5;" class="neon-helper-path"></path>
        <path d="M277.07401,115c-9.17305,0 -17.9491,1.77201 -26.32815,5.31603c-6.38304,2.70002 -12.19007,6.27704 -17.4211,10.73006h8.55605c3.40302,-2.32701 7.03404,-4.30602 10.89206,-5.93803c7.73204,-3.27002 15.83209,-4.90503 24.30114,-4.90503c8.46938,0 16.56976,1.63501 24.30114,4.90503c3.85802,1.63201 7.48904,3.61102 10.89106,5.93803h8.55705c-5.23103,-4.45303 -11.03806,-8.03005 -17.4221,-10.73006c-8.37905,-3.54402 -17.1551,-5.31603 -26.32715,-5.31603z" style="fill: rgb(221, 6, 85); filter: url(&quot;#filter-glow-2&quot;); opacity: 0.75; mix-blend-mode: screen; stroke: rgb(221, 6, 85); stroke-width: 5;" class="neon-helper-path"></path>
        <g fill="url(#color-19692213763)" fill-rule="none" stroke="none" stroke-width="1" stroke-linecap="butt" stroke-linejoin="miter" stroke-miterlimit="10" stroke-dasharray="" stroke-dashoffset="0" font-family="none" font-weight="none" font-size="none" text-anchor="none" style="mix-blend-mode: normal; fill: rgb(255, 255, 255); opacity: 1;">
            <g data-paper-data="{&quot;isGlobalGroup&quot;:true}" style="fill: rgb(255, 255, 255); opacity: 1;">
                <g data-paper-data="{&quot;fillRule&quot;:&quot;nonzero&quot;,&quot;isIcon&quot;:&quot;true&quot;,&quot;rawInitialId&quot;:&quot;653&quot;,&quot;iconType&quot;:&quot;initial&quot;,&quot;initialText&quot;:&quot;T&quot;,&quot;selectedEffects&quot;:{&quot;container&quot;:&quot;enclosed_circle_outline3&quot;,&quot;transformation&quot;:&quot;&quot;,&quot;pattern&quot;:&quot;&quot;},&quot;iconStyle&quot;:&quot;standalone&quot;,&quot;bounds&quot;:{&quot;x&quot;:205.2906050856638,&quot;y&quot;:115.00000000000003,&quot;width&quot;:139.41878982867246,&quot;height&quot;:138.48078451472952},&quot;blockLetter&quot;:&quot;O&quot;,&quot;blockLetterId&quot;:&quot;0&quot;,&quot;relativeBoundsIconToContainer&quot;:{&quot;top&quot;:&quot;0.07157957335159314&quot;,&quot;left&quot;:&quot;-0.04825011382218451&quot;},&quot;widthRatioIconToContainer&quot;:&quot;0.903499772355631&quot;,&quot;heightRatioIconToContainer&quot;:&quot;0.8568408532968136&quot;}" fill-rule="evenodd" style="fill: rgb(255, 255, 255); opacity: 1;">
                    <g data-paper-data="{&quot;isPathIcon&quot;:true}" style="fill: rgb(255, 255, 255); opacity: 1;">
                        <path d="M277.07401,115c-9.17305,0 -17.9491,1.77201 -26.32815,5.31603c-6.38304,2.70002 -12.19007,6.27704 -17.4211,10.73006h8.55605c3.40302,-2.32701 7.03404,-4.30602 10.89206,-5.93803c7.73204,-3.27002 15.83209,-4.90503 24.30114,-4.90503c8.46938,0 16.56976,1.63501 24.30114,4.90503c3.85802,1.63201 7.48904,3.61102 10.89106,5.93803h8.55705c-5.23103,-4.45303 -11.03806,-8.03005 -17.4221,-10.73006c-8.37905,-3.54402 -17.1551,-5.31603 -26.32715,-5.31603z" style="fill: rgb(255, 255, 255); filter: url(&quot;#filter-original&quot;);"></path>
                        <path d="M223.81971,146.55418c-0.17,2.55001 -0.17,6.46004 0,9.01005l0.17,3.23002h39.60822v21.07912l-28.55916,-2.89002l56.26832,26.34915v-22.09913l-19.71911,-8.50005l1.02001,-2.04001l35.8682,15.98009l1.02001,-2.04001l-18.1891,-8.16005v-17.6791h39.94823v-23.96914h-107.43561z" style="fill: rgb(255, 255, 255); filter: url(&quot;#filter-original&quot;);"></path>
                        <path d="M214.75466,156.30823c-3.54402,8.37905 -5.31703,17.1551 -5.31703,26.32715c0,1.14701 0.028,2.28601 0.083,3.42002l5.39803,2.56801c-0.185,-1.97501 -0.278,-3.97102 -0.278,-5.98803c0,-8.46905 1.63501,-16.56909 4.90503,-24.30014c0.18467,-0.43534 0.37334,-0.86767 0.566,-1.29701l-0.078,-1.47001l-0.062,-1.27501l-0.039,-1.33601l-0.018,-1.31801l0.001,-1.31301l0.02,-1.31201l0.041,-1.32001l0.057,-1.44201c-2.02701,3.17602 -3.78702,6.52804 -5.27903,10.05606z" style="fill: rgb(255, 255, 255); filter: url(&quot;#filter-original&quot;);"></path>
                        <path d="M344.70939,182.63538c0,-9.17205 -1.77201,-17.9481 -5.31603,-26.32715c-1.26101,-2.98302 -2.71402,-5.84003 -4.35902,-8.57105v11.05706l-0.004,0.185l-0.014,0.185l-0.016,0.134c3.00402,7.44004 4.50703,15.21909 4.50703,23.33713c0,8.46905 -1.63501,16.57009 -4.90503,24.30114c-3.16002,7.46904 -7.62004,14.08408 -13.38208,19.84611c-5.76137,5.76137 -12.3764,10.22172 -19.84511,13.38108c-2.07001,0.875 -4.16702,1.63301 -6.28904,2.27501v5.41603c2.81402,-0.778 5.58603,-1.74501 8.31505,-2.89902c8.09205,-3.42302 15.25809,-8.25405 21.49912,-14.49408c6.23904,-6.24004 11.07006,-13.40608 14.49308,-21.49812c3.54402,-8.37905 5.31603,-17.1551 5.31603,-26.32815z" style="fill: rgb(255, 255, 255); filter: url(&quot;#filter-original&quot;);"></path>
                        <path d="M313.91622,227.81164l-50.31829,-23.62913v9.68905l24.13914,11.05006l-1.02001,2.04001l-80.40646,-38.24922l-1.02001,2.21001l32.46818,15.30009l-1.36001,2.89002l54.90831,27.02915v-14.79008z" style="fill: rgb(255, 255, 255); filter: url(&quot;#filter-original&quot;);"></path>
                        <path d="M229.24774,230.46165c6.24004,6.24004 13.40608,11.07106 21.49812,14.49408c2.97502,1.25801 5.99903,2.29201 9.07305,3.10402v-5.39803c-2.38101,-0.686 -4.73003,-1.51901 -7.04604,-2.49801c-7.46871,-3.15935 -14.08408,-7.61971 -19.84611,-13.38108c-5.76137,-5.76137 -10.22172,-12.37674 -13.38108,-19.84611c-0.859,-2.03301 -1.60601,-4.09102 -2.24001,-6.17403l-2.23101,-1.05201l-2.27901,-1.07401l-1.64701,-0.776c0.87,3.77502 2.07201,7.47604 3.60602,11.10306c3.42269,8.09205 8.25371,15.25809 14.49308,21.49812z" style="fill: rgb(255, 255, 255); filter: url(&quot;#filter-original&quot;);"></path>
                        <path d="M263.59794,225.09162l27.70916,13.59908v14.79008h-27.70916z" style="fill: rgb(255, 255, 255); filter: url(&quot;#filter-original&quot;);"></path>
                    </g>
                </g>
            </g>
        </g>
    </svg>