<?xml version="1.0" encoding="utf-8"?>
<!-- Generator: Adobe Illustrator 25.2.1, SVG Export Plug-In . SVG Version: 6.00 Build 0)  -->
<svg version="1.1" id="svg" xmlns="http://www.w3.org/2000/svg" xmlns:xlink="http://www.w3.org/1999/xlink" x="0px" y="0px"
	 viewBox="0 0 400 404.2" style="enable-background:new 0 0 400 404.2;" xml:space="preserve">
<style type="text/css">
	.st0{fill-rule:evenodd;clip-rule:evenodd;fill:#FFFFFF;}
</style>
<g id="svgg">
	<path id="path0" class="st0" d="M283.7,24.8c36.7,18.6,44.1,25.9,34.3,34c-4.3,3.6-10.4,1.7-25.5-7.9
		c-29.5-18.7-42.4-20.4-54.7-7.1c-5.6,6-13.3,10.9-17.1,10.9c-5.5,0-6.4,2.5-4.3,11.6c5.3,22.7,4.9,23.8-12,29.5
		c-35.3,11.8-38.8,33.6-6.6,41.4c18.4,4.4,19,5.1,20.2,22.1c1.1,14.6,3.4,18.7,13.7,24c13.6,7.1,15.7,15,6.1,23
		c-12.6,10.5-7.9,25.3,8,25.3c12.6,0,15.9,2.6,27.9,21.2c16.8,26.1,15,28.8-8,11.9c-16-11.8-19-12.6-29.1-8
		c-10.2,4.6-12.1,4-20.5-6.5c-13.6-17-23.9-7.9-20.1,17.8c4.4,29.3,0.5,36.7-27.1,51.4c-35,18.7-39.2,16.5-15.4-7.7l20.7-21
		l-5.6-21.9l-5.6-21.9l26.9-24.1l26.9-24.1l-11.6-9.1c-6.8-5.4-11.6-13.2-11.6-19.1c0-11.1-1.3-12.3-18-16.3
		c-10.2-2.4-12.8-0.9-20.4,12.1c-7.6,12.8-10.9,14.8-24.7,14.8c-8.8,0-21.3,2.8-27.8,6.2c-16.6,8.6-18,4.4-3.5-10.7
		c9.8-10.3,15.1-12.6,25.9-11.3c12.2,1.4,13.8,0.2,16.4-11.3c1.5-7.1,6.3-15.3,10.5-18.2c5.8-4,7.1-8.6,5.2-18
		c-2.9-14.3,5.3-26,25.4-36.3c10.6-5.5,11.8-8,9.8-20.3c-1.9-11.7-0.5-15.2,7.9-20.8c18-11.8,12.6-16.4-16.1-13.6
		C155.5,29.4,119,42,99.9,55.6c-21.8,15.5-29.8,0.2-8.6-16.5C143.7-2,219.7-7.7,283.7,24.8 M58.9,85.2c0,2.9-6.7,18.8-14.9,35.4
		c-26,52.7-24.1,123.7,4.5,172.6c19.6,33.4,7.3,44.2-14.4,12.7c-38.9-56.5-40.3-142.2-3.5-203.9C43,81.5,58.9,72,58.9,85.2
		 M366.1,97.1c41.4,57.1,37.8,164.3-7.2,218.6c-18.8,22.7-20.5,3.6-2.9-32.1c26.4-53.4,25.4-118.5-2.6-168.9
		C332.9,78.1,342.5,64.7,366.1,97.1 M100.8,349.3c50.7,36.1,141.1,36.9,195.3,1.7c12.8-8.3,17.3-9.4,22.1-5.5
		c24.1,20-69.7,57.5-132.9,53c-50.5-3.5-118-35.9-105.7-50.7C86.7,339.3,86.8,339.3,100.8,349.3"/>
</g>
</svg>
