<?xml version="1.0" encoding="utf-8"?>
<!-- Generator: Adobe Illustrator 25.2.1, SVG Export Plug-In . SVG Version: 6.00 Build 0)  -->
<svg version="1.1" id="svg" xmlns="http://www.w3.org/2000/svg" xmlns:xlink="http://www.w3.org/1999/xlink" x="0px" y="0px"
	 viewBox="0 0 400 442.7" style="enable-background:new 0 0 400 442.7;" xml:space="preserve">
<style type="text/css">
	.st0{fill-rule:evenodd;clip-rule:evenodd;fill:#FFFFFF;}
</style>
<g id="svgg">
	<path id="path0" class="st0" d="M257.6,36.6c85.1,28.7,130.8,91.3,130.8,179.2c0,180.7-192.1,269-319,146.6
		C-78,220.1,65.4-28.2,257.6,36.6 M252.4,60.2c0,1.5,7,10.7,15.5,20.3c50.6,57.5,21.3,110.9-81.3,148.3
		c-52.2,19.1-69.8,38.7-70,78.4c-0.3,66.2,52.7,99.3,127.1,79.5c123.1-32.8,167-185.3,80.9-280.7C304.7,84.1,252.4,50.8,252.4,60.2
		 M172.6,106.6c-18.5,18.5-5.7,52.6,19.7,52.6c16.5,0,34.4-20.6,31.4-36.1C218.8,97.7,190.7,88.6,172.6,106.6 M217.8,294.8
		c12.6,12.6,14.1,22.6,5.7,38.8c-11.3,21.8-41.3,24.5-56.6,5.2C140.7,305.5,187.8,264.8,217.8,294.8"/>
</g>
</svg>
