<?xml version="1.0" encoding="utf-8"?>
<!-- Generator: Adobe Illustrator 25.2.1, SVG Export Plug-In . SVG Version: 6.00 Build 0)  -->
<svg version="1.1" id="svg" xmlns="http://www.w3.org/2000/svg" xmlns:xlink="http://www.w3.org/1999/xlink" x="0px" y="0px"
	 viewBox="0 0 400 442.7" style="enable-background:new 0 0 400 442.7;" xml:space="preserve">
<style type="text/css">
	.st0{fill-rule:evenodd;clip-rule:evenodd;fill:#FFFFFF;stroke:#FFFFFF;stroke-miterlimit:10;}
	.st1{fill:#FFFFFF;stroke:#FFFFFF;stroke-width:10;stroke-miterlimit:10;}
	.st2{fill:#FFFFFF;stroke:#FFFFFF;stroke-miterlimit:10;}
</style>
<g id="svgg">
	<path id="path0" class="st0" d="M120.4,11.2c0,1.9-4.7,13.6-10.3,26c-34.8,75.9,21,139.1,110.3,125.1c69.3-10.9,96.5-67.8,63-132.1
		c-15.2-29.1-4.9-31.8,18.8-5c58.2,66.1,5.1,167.3-92.1,175.5c-108.9,9.1-181.7-103-114.8-177C108.6,9,120.4,3.1,120.4,11.2
		 M162.4,268c17.6,32.8,32.5,56.3,35.8,56.3s18.2-23.5,35.8-56.3c25.6-47.8,47.2-77.4,52.5-72.1c2.1,2.1-10.5,43.2-22.5,73.8
		c-9.4,23.8-37.9,97.5-57.6,148.8c-7.6,19.8-9.6,20.3-15.1,3.9c-2.3-6.9-9.5-25.7-16-41.7C96.4,186.3,90.4,133.4,162.4,268
		 M227.2,239.8c-5.6,10.1-14.5,23.7-19.8,30.1l-9.7,11.6l-9.4-11.5c-5.2-6.3-13.9-19.9-19.5-30.1l-10.1-18.6H198h39.3L227.2,239.8
		 M97.1,249.8c0,7.1,4.1,21.1,9.2,31.1l9.2,18.1H89.6c-26.1,0-67.7,8.6-76.4,15.9c-7.8,6.5-9.2-1.7-2.6-15.4
		C31.2,257,97.1,219.2,97.1,249.8"/>
	<path class="st0" d="M303.4,249.8c0-30.7,65.9,7.2,86.5,49.7c6.6,13.7,5.3,21.9-2.6,15.4"/>
	<path class="st0" d="M387.3,314.9c-8.7-7.2-50.3-15.9-76.4-15.9h-25.8l9.2-18.1c5-10,9.2-24,9.2-31.1"/>
	<path class="st1" d="M265.2,62.9c0-3.9-0.4-7.8-0.3-11.7c-20.2-7.4-42-11.5-64.9-11.5c-24.1,0-47.1,4.6-68.2,12.8
		c-0.8,3.8-1.7,7.7-2.4,11.5c0.2,1.5,0.5,2.9,1,4.3c21.4-9.4,45.1-14.7,70.1-14.7c22.5,0,43.9,4.3,63.5,12
		C264.4,64.6,264.8,63.8,265.2,62.9z"/>
	<path class="st2" d="M299.3,82.1c0,0.7-0.2,1.4-0.4,2c7.6,5.2,14.6,11,21.2,17.3c0.4-4.9,2.4-9.8,5.3-13.6
		c-8.7-7.9-18.2-15-28.4-21.2C299,71.5,299.4,76.8,299.3,82.1z"/>
	<path class="st1" d="M350.8,116.2c-0.8,5.8-2.1,11.6-2.9,17.4c-0.1,0.7-0.2,1.4-0.3,2.1c15.4,25.2,24.2,54.7,24.2,86.2
		c0,4.5-0.2,9-0.6,13.4c4.2,1.9,8.4,4,12.6,6.1c0.7-6.6,1.1-13.2,1.1-20C385,182.2,372.3,145.9,350.8,116.2z"/>
	<path class="st2" d="M358.2,302.6c2.3,0.5,4.6,0.6,6.9,0.8c3.3-6.4,6.3-13.1,8.8-19.9c-4-1.6-7.7-5.6-9.6-8.9
		c-0.2-0.4-0.4-0.8-0.6-1.2c-3.1,9.5-7.1,18.7-11.8,27.4C353.9,301.5,356,302.2,358.2,302.6z"/>
	<path class="st2" d="M78.1,91.2c0,1.3,0,2.6-0.2,3.9c0,3.1,0.2,6.3-0.2,9.3c6.4-6.5,13.4-12.4,20.8-17.8c-1.4-3.3-1.3-7.4-1-10.8
		c0.1-1,0.3-1.9,0.5-2.8c-0.4-0.8-0.7-1.8-0.6-2.8c-7.7,5-14.9,10.6-21.7,16.7C77,87.6,78.1,89,78.1,91.2z"/>
	<path class="st1" d="M53,136.1c-2.8-5.3-4.8-10.9-6.1-16.7C26.8,148.5,15,183.6,15,221.4c0,8.5,0.6,16.9,1.8,25.1l0,0
		c4.7-2.4,8.7-5.8,13.1-8.6c-0.5-5.3-0.8-10.6-0.8-16C29.1,190.5,37.8,161.2,53,136.1z"/>
	<path class="st2" d="M28.2,279.3c-0.9,1.1-2,1.6-3,1.7c2.6,7.2,5.5,14.2,8.9,21c0.6-0.4,1.4-0.7,2.3-0.7c4.2-0.4,8.4,0,12.6-0.5
		c-5-9.2-9.1-18.9-12.3-29C33.7,273.9,30.7,276.4,28.2,279.3z"/>
	<path class="st1" d="M150.6,382.9c-32.5-9.7-60.8-28.6-82-53.5c-5.4,0.6-10.8,1.2-16.3,1.5c24.2,31.5,58.7,54.9,98.4,65.7
		C150.2,392.2,149.9,387.4,150.6,382.9z"/>
	<path class="st2" d="M210.8,391.1c0.3-0.5,0.6-1,0.9-1.4c-3.7,0.2-7.5,0.4-11.2,0.4c-7.3,0-14.5-0.5-21.6-1.3
		c0,0.2,0.1,0.5,0.1,0.7c0.8,0.4,1.6,1,2.1,2c0.9,1.6,1.5,3.3,1.9,4.9c0.8,2,1.5,3.9,1.9,6c5,0.4,10.1,0.6,15.2,0.6
		c2.6,0,5.2-0.1,7.9-0.2c-0.2-0.7-0.2-1.5,0-2.4C208.4,397.5,209.4,393.8,210.8,391.1z"/>
	<path class="st1" d="M343.2,331c-4.5,0.4-9,0.9-13.5,1.4C308,356.8,279.2,375,246.5,384c0.3,4.5-0.6,9.1-1.7,13.7
		c41.7-10.2,77.9-34.3,103-67C346.3,330.8,344.7,330.9,343.2,331z"/>
</g>
</svg>
