<?xml version="1.0" encoding="utf-8"?>
<!-- Generator: Adobe Illustrator 25.2.1, SVG Export Plug-In . SVG Version: 6.00 Build 0)  -->
<svg version="1.1" id="svg" xmlns="http://www.w3.org/2000/svg" xmlns:xlink="http://www.w3.org/1999/xlink" x="0px" y="0px"
	 viewBox="0 0 400 442.7" style="enable-background:new 0 0 400 442.7;" xml:space="preserve">
<style type="text/css">
	.st0{fill-rule:evenodd;clip-rule:evenodd;fill:#FFFFFF;}
</style>
<g id="svgg">
	<path id="path0" class="st0" d="M240,39.8c19.8,10.8,38.2,33.8,43.9,54.9c8.4,31,1.4,61.1-32.9,142.2
		c-22.9,54.1-16.4,85.9,21.6,105.3c57.6,29.4,117.1-34.6,73.1-78.6c-14.3-14.3-31.6-14.9-44.9-1.6c-17.6,17.7-8.5,52.6,13.8,52.6
		c9.3,0,10.3,6,1.6,9.3c-50.6,19.4-76.6-67.8-27.8-93.4c68.6-36,133.9,50.7,85.9,114.1c-48.2,63.7-133,38.5-197.6-58.9
		c-44.2-66.6-118.6-68-138.2-2.6c-14.6,48.7,40.2,89.3,74.4,55.1c27.9-27.9-5.5-67.7-37.8-45.1c-15.6,10.9-18.5-8.4-3.5-23.3
		c31.1-31.1,90.7,8.3,82.1,54.1c-16.9,89.8-144,65.9-144-27.1c0-64.4,46.1-99.1,138.7-104.5c95.1-5.5,136.3-53.3,94.2-109.2
		c-32.8-43.4-102.8-23.1-93.4,27.1c6.5,34.4,56.7,34.6,56.7,0.2c0-17.3,9.9-22.1,20-9.6c35.2,43.4-42.9,87.3-86.1,48.3
		C75.3,90.7,161.4-3.1,240,39.8 M211.6,213.6c-6.4,1.6-19.8,3.2-29.9,3.4c-22.6,0.6-25.5,4.6-10.9,15.4c6.2,4.6,16.1,16.5,21.9,26.5
		l10.6,18.1l6.5-19.3c3.6-10.6,9.4-24.8,12.9-31.5C232.2,208,232.5,208.3,211.6,213.6 M208.2,230.8c2.5,6.5-4.8,21.7-10.4,21.7
		c-7.5,0-13.6-19.6-7.3-23.5C198.7,223.7,205.8,224.5,208.2,230.8"/>
</g>
</svg>
