<?xml version="1.0" encoding="utf-8"?>
<!-- Generator: Adobe Illustrator 25.2.1, SVG Export Plug-In . SVG Version: 6.00 Build 0)  -->
<svg version="1.1" id="svg" xmlns="http://www.w3.org/2000/svg" xmlns:xlink="http://www.w3.org/1999/xlink" x="0px" y="0px"
	 viewBox="0 0 400 442.7" style="enable-background:new 0 0 400 442.7;" xml:space="preserve">
<style type="text/css">
	.st0{fill-rule:evenodd;clip-rule:evenodd;fill:#FFFFFF;}
</style>
<g id="svgg">
	<path id="path0" class="st0" d="M253.6,38.9c132.5,40.9,173.1,204,75.9,305.1c-81.7,85.1-214.9,74.8-282.7-21.9
		C-54.2,178.2,85.4-13.1,253.6,38.9 M167.4,50.8C35.8,76.7-12.8,233.4,79.8,333.5c77.7,83.9,220.4,58.6,270.3-48
		C406.6,164.6,298.1,25.1,167.4,50.8 M201.9,81.1c0,1.9-4.8,5.4-10.7,7.9S174,99.1,166,106l-14.5,12.5l6.2,18.4
		c16.2,48-18.2,95-63.3,86.6c-63-11.8-24.4-106.7,56.1-138.2C169.7,77.7,201.9,75.2,201.9,81.1 M290.6,110.7
		c41.4,34.8,57.9,105.9,36,155.3c-9.8,22.1-15.9,19.6-15.9-6.3c0-27.3-4.7-34.5-22.9-34.5c-56.5,0-79.1-85-30.7-115.9
		C273.5,98.8,276.6,98.9,290.6,110.7 M215.2,194.6c14,11,12.9,32.1-2.3,43.4c-27.3,20.3-57.2-17.5-33.6-42.6
		C189.8,184.2,201.7,184,215.2,194.6 M233.4,270.1c12.4,6.4,26.8,31.1,26.8,46.1c0,56-103.5,52.7-163.6-5.3
		c-26.9-25.9-25.8-39.7,1.9-23.3c26.3,15.5,36.8,16.4,43.4,3.5C156.2,263.3,200.6,253.2,233.4,270.1"/>
</g>
</svg>
