<?xml version="1.0" encoding="utf-8"?>
<!-- Generator: Adobe Illustrator 25.2.1, SVG Export Plug-In . SVG Version: 6.00 Build 0)  -->
<svg version="1.1" id="svg" xmlns="http://www.w3.org/2000/svg" xmlns:xlink="http://www.w3.org/1999/xlink" x="0px" y="0px"
	 viewBox="0 0 443 442.7" style="enable-background:new 0 0 443 442.7;" xml:space="preserve">
<style type="text/css">
	.st0{fill-rule:evenodd;clip-rule:evenodd;fill:#FFFFFF;stroke:#FFFFFF;stroke-width:10;stroke-miterlimit:10;}
</style>
<g>
	<rect x="205" y="6.4" class="st0" width="32" height="146.6"/>
	<rect x="205" y="281.5" class="st0" width="32" height="154.9"/>
	<rect x="283.5" y="205.4" class="st0" width="152.5" height="32"/>
	<rect x="6" y="205.4" class="st0" width="149" height="32"/>
</g>
<g>
	<path class="st0" d="M67.1,174.1c5.8,0,11.4,1,16.6,2.8c13.9-44.3,48.6-79.5,92.6-94.1c-2.7-6.2-4.3-13-4.3-20.2
		c0-1.6,0.1-3.2,0.2-4.7c-55.3,16.9-98.5,61.2-114,117C61.1,174.4,64,174.1,67.1,174.1z"/>
	<path class="st0" d="M272.1,62.6c0,7.2-1.5,14-4.3,20.2c43,14.3,77,48.1,91.6,90.9c5.5-2.1,11.5-3.2,17.7-3.2
		c2.6,0,5.2,0.2,7.7,0.6c-16.4-54-58.9-96.7-112.9-113.2C272,59.4,272.1,61,272.1,62.6z"/>
	<path class="st0" d="M377.1,270.4c-6.2,0-12.2-1.2-17.7-3.2c-14.5,42.5-48.1,76.1-90.6,90.5c2.1,5.5,3.3,11.5,3.3,17.8
		c0,2.6-0.2,5.1-0.6,7.5c54.1-16.4,96.8-59.1,113.3-113.3C382.2,270.2,379.7,270.4,377.1,270.4z"/>
	<path class="st0" d="M172.1,375.6c0-6.3,1.2-12.3,3.3-17.8C134,343.7,101,311.4,86,270.4c-5.8,2.4-12.2,3.7-18.8,3.7
		c-2.2,0-4.4-0.2-6.5-0.4c17.2,52.3,59.2,93.4,112.1,109.5C172.3,380.7,172.1,378.2,172.1,375.6z"/>
</g>
</svg>
