<?xml version="1.0" encoding="utf-8"?>
<!-- Generator: Adobe Illustrator 25.2.1, SVG Export Plug-In . SVG Version: 6.00 Build 0)  -->
<svg version="1.1" id="Layer_1" xmlns="http://www.w3.org/2000/svg" xmlns:xlink="http://www.w3.org/1999/xlink" x="0px" y="0px"
	 viewBox="0 0 1000 1000" style="enable-background:new 0 0 1000 1000;" xml:space="preserve">
<style type="text/css">
	.st0{fill-rule:evenodd;clip-rule:evenodd;fill:url(#SVGID_1_);}
	.st1{fill-rule:evenodd;clip-rule:evenodd;fill:url(#SVGID_2_);}
	.st2{fill-rule:evenodd;clip-rule:evenodd;fill:url(#SVGID_3_);}
	.st3{fill-rule:evenodd;clip-rule:evenodd;fill:url(#SVGID_4_);}
	.st4{fill-rule:evenodd;clip-rule:evenodd;fill:url(#SVGID_5_);}
	.st5{fill-rule:evenodd;clip-rule:evenodd;fill:url(#SVGID_6_);}
	.st6{fill-rule:evenodd;clip-rule:evenodd;fill:url(#SVGID_7_);}
</style>
<g>
	<g>
		<g>
			<g>
				
					<linearGradient id="SVGID_1_" gradientUnits="userSpaceOnUse" x1="-666.118" y1="936.8943" x2="1665.9445" y2="936.8943" gradientTransform="matrix(1 0 0 -1 0 1002)">
					<stop  offset="0" style="stop-color:#4568DC"/>
					<stop  offset="1" style="stop-color:#B06AB3"/>
				</linearGradient>
				<path class="st0" d="M514.64,8.13c-65.14,0-127.45,12.58-186.95,37.75c-45.33,19.17-86.56,44.57-123.71,76.19h60.76
					c24.16-16.52,49.95-30.58,77.34-42.17c54.9-23.22,112.42-34.83,172.56-34.83c60.14,0,117.66,11.61,172.56,34.83
					c27.4,11.59,53.18,25.64,77.34,42.17h60.76c-37.14-31.62-78.38-57.02-123.71-76.19C642.09,20.72,579.77,8.13,514.64,8.13z"/>
				
					<linearGradient id="SVGID_2_" gradientUnits="userSpaceOnUse" x1="-666.118" y1="609.8566" x2="1665.9445" y2="609.8566" gradientTransform="matrix(1 0 0 -1 0 1002)">
					<stop  offset="0" style="stop-color:#4568DC"/>
					<stop  offset="1" style="stop-color:#B06AB3"/>
				</linearGradient>
				<path class="st1" d="M136.49,232.2c-1.21,18.11-1.21,45.87,0,63.98l1.21,22.94h281.25v149.68l-202.8-20.52l399.56,187.1V478.45
					l-140.02-60.36l7.24-14.49l254.7,113.47l7.24-14.49l-129.16-57.94V319.11h283.67v-170.2H136.49L136.49,232.2z"/>
				
					<linearGradient id="SVGID_3_" gradientUnits="userSpaceOnUse" x1="-666.118" y1="621.5095" x2="1665.9445" y2="621.5095" gradientTransform="matrix(1 0 0 -1 0 1002)">
					<stop  offset="0" style="stop-color:#4568DC"/>
					<stop  offset="1" style="stop-color:#B06AB3"/>
				</linearGradient>
				<path class="st2" d="M72.12,301.46c-25.17,59.5-37.76,121.82-37.76,186.95c0,8.14,0.2,16.23,0.59,24.29l38.33,18.24
					c-1.31-14.02-1.97-28.2-1.97-42.52c0-60.14,11.61-117.66,34.83-172.55c1.31-3.09,2.65-6.16,4.02-9.21l-0.55-10.44l-0.44-9.05
					l-0.28-9.49l-0.13-9.36l0.01-9.32l0.14-9.32l0.29-9.37l0.4-10.24C95.21,252.61,82.71,276.41,72.12,301.46L72.12,301.46z"/>
				
					<linearGradient id="SVGID_4_" gradientUnits="userSpaceOnUse" x1="-666.118" y1="405.9388" x2="1665.9445" y2="405.9388" gradientTransform="matrix(1 0 0 -1 0 1002)">
					<stop  offset="0" style="stop-color:#4568DC"/>
					<stop  offset="1" style="stop-color:#B06AB3"/>
				</linearGradient>
				<path class="st3" d="M994.91,488.41c0-65.13-12.58-127.45-37.75-186.95c-8.95-21.18-19.27-41.47-30.95-60.86v78.52l-0.03,1.31
					l-0.1,1.31l-0.11,0.95c21.33,52.83,32,108.07,32,165.71c0,60.14-11.61,117.66-34.83,172.56
					C900.7,714,869.03,760.98,828.12,801.89c-40.91,40.91-87.88,72.58-140.92,95.02c-14.7,6.21-29.59,11.6-44.66,16.15v38.46
					c19.98-5.52,39.67-12.39,59.04-20.59c57.46-24.31,108.35-58.61,152.66-102.92c44.3-44.31,78.61-95.2,102.91-152.66
					C982.33,615.86,994.91,553.54,994.91,488.41z"/>
				
					<linearGradient id="SVGID_5_" gradientUnits="userSpaceOnUse" x1="-666.118" y1="302.0448" x2="1665.9445" y2="302.0448" gradientTransform="matrix(1 0 0 -1 0 1002)">
					<stop  offset="0" style="stop-color:#4568DC"/>
					<stop  offset="1" style="stop-color:#B06AB3"/>
				</linearGradient>
				<path class="st4" d="M776.25,809.2L418.95,641.41v68.8l171.41,78.47l-7.24,14.49L12.16,531.56l-7.24,15.69L235.47,655.9
					l-9.66,20.52l389.9,191.93V763.33L776.25,809.2z"/>
				
					<linearGradient id="SVGID_6_" gradientUnits="userSpaceOnUse" x1="-666.118" y1="227.2505" x2="1665.9445" y2="227.2505" gradientTransform="matrix(1 0 0 -1 0 1002)">
					<stop  offset="0" style="stop-color:#4568DC"/>
					<stop  offset="1" style="stop-color:#B06AB3"/>
				</linearGradient>
				<path class="st5" d="M175.03,828.02c44.31,44.31,95.2,78.61,152.66,102.92c21.13,8.93,42.6,16.28,64.43,22.04v-38.33
					c-16.91-4.87-33.59-10.79-50.03-17.74c-53.03-22.43-100.01-54.11-140.93-95.02c-40.91-40.91-72.58-87.89-95.02-140.93
					c-6.1-14.44-11.4-29.05-15.91-43.84l-15.84-7.47l-16.18-7.63l-11.7-5.51c6.18,26.81,14.71,53.09,25.61,78.84
					C96.42,732.82,130.73,783.71,175.03,828.02L175.03,828.02z"/>
				
					<linearGradient id="SVGID_7_" gradientUnits="userSpaceOnUse" x1="-666.118" y1="111.3205" x2="1665.9445" y2="111.3205" gradientTransform="matrix(1 0 0 -1 0 1002)">
					<stop  offset="0" style="stop-color:#4568DC"/>
					<stop  offset="1" style="stop-color:#B06AB3"/>
				</linearGradient>
				<path class="st6" d="M418.95,789.89l196.76,96.57v105.02H418.95V789.89z"/>
			</g>
		</g>
	</g>
</g>
</svg>
